{
	"asset":{
		"version":"2.0",
		"generator":"Created using the official Cinema 4D glTF Exporter 1.000x290161"
	},
	"materials":[{
		"pbrMetallicRoughness":{
			"baseColorFactor":[0.8,
			0.8,
			0.8,
			1.0],
			"metallicFactor":1.0,
			"roughnessFactor":0.1
		},
		"emissiveFactor":[0.0,
		0.0,
		0.0],
		"alphaMode":"OPAQUE",
		"doubleSided":false,
		"name":"PBR"
	}],
	"scenes":[{
		"nodes":[0,
		1]
	}],
	"nodes":[{
		"name":"Camera",
		"translation":[23.95671844482422,
		-31.990983963012697,
		1200.821044921875],
		"rotation":[0.0,
		0.0,
		0.0,
		-1.0],
		"camera":0,
		"scale":[1.0,
		1.0,
		1.0]
	},
	{
		"name":"Stray Orbit",
		"translation":[0.0,
		0.0,
		0.0],
		"rotation":[0.0,
		0.0,
		0.0,
		-1.0],
		"scale":[1.0,
		1.0,
		1.0],
		"mesh":0
	}],
	"accessors":[{
		"bufferView":0,
		"type":"SCALAR",
		"componentType":5123,
		"count":29232,
		"byteOffset":0,
		"min":[0],
		"max":[7994]
	},
	{
		"bufferView":1,
		"type":"VEC3",
		"componentType":5126,
		"count":7995,
		"byteOffset":0,
		"min":[-439.1878356933594,
		-159.0,
		-72.0],
		"max":[439.1878356933594,
		142.0,
		2.0]
	},
	{
		"bufferView":1,
		"type":"VEC3",
		"componentType":5126,
		"count":7995,
		"byteOffset":12,
		"min":[-1.0,
		-1.0,
		-1.0],
		"max":[1.0,
		1.0,
		1.0]
	},
	{
		"bufferView":1,
		"type":"VEC2",
		"componentType":5126,
		"count":7995,
		"byteOffset":24,
		"min":[0.0,
		0.0],
		"max":[1.0,
		1.0]
	},
	{
		"bufferView":2,
		"type":"SCALAR",
		"componentType":5126,
		"count":2,
		"byteOffset":0,
		"min":[0.0],
		"max":[6.0]
	},
	{
		"bufferView":2,
		"type":"VEC3",
		"componentType":5126,
		"count":2,
		"byteOffset":8,
		"min":[0.0,
		0.0,
		0.0],
		"max":[0.0,
		0.0,
		0.0]
	},
	{
		"bufferView":3,
		"type":"SCALAR",
		"componentType":5126,
		"count":5,
		"byteOffset":0,
		"min":[0.0],
		"max":[6.0]
	},
	{
		"bufferView":3,
		"type":"VEC4",
		"componentType":5126,
		"count":5,
		"byteOffset":20,
		"min":[0.0,
		-1.0,
		0.0,
		-1.0],
		"max":[0.0,
		0.0,
		0.0,
		1.0]
	},
	{
		"bufferView":4,
		"type":"SCALAR",
		"componentType":5126,
		"count":2,
		"byteOffset":0,
		"min":[0.0],
		"max":[6.0]
	},
	{
		"bufferView":4,
		"type":"VEC3",
		"componentType":5126,
		"count":2,
		"byteOffset":8,
		"min":[1.0,
		1.0,
		1.0],
		"max":[1.0,
		1.0,
		1.0]
	}],
	"meshes":[{
		"primitives":[{
			"attributes":{
				"POSITION":1,
				"NORMAL":2,
				"TEXCOORD_0":3
			},
			"indices":0,
			"material":0
		}]
	}],
	"cameras":[{
		"type":"perspective",
		"perspective":{
			"znear":0.009999999776482582,
			"zfar":10000000000.0,
			"aspectRatio":1.7777777910232545,
			"yfov":0.5483348965644836
		}
	}],
	"bufferViews":[{
		"buffer":0,
		"byteOffset":0,
		"byteLength":58464,
		"target":34963
	},
	{
		"buffer":0,
		"byteOffset":58464,
		"byteLength":255840,
		"target":34962,
		"byteStride":32
	},
	{
		"buffer":1,
		"byteOffset":0,
		"byteLength":32
	},
	{
		"buffer":1,
		"byteOffset":32,
		"byteLength":100
	},
	{
		"buffer":1,
		"byteOffset":132,
		"byteLength":32
	}],
	"buffers":[{
		"uri":"data:application/octet-stream;base64,",
		"byteLength":314304
	},
	{
		"uri":"data:application/octet-stream;base64,",
		"byteLength":164
	}],
	"animations":[{
		"samplers":[{
			"input":4,
			"interpolation":"LINEAR",
			"output":5
		},
		{
			"input":6,
			"interpolation":"LINEAR",
			"output":7
		},
		{
			"input":8,
			"interpolation":"LINEAR",
			"output":9
		}],
		"channels":[{
			"sampler":0,
			"target":{
				"node":1,
				"path":"translation"
			}
		},
		{
			"sampler":1,
			"target":{
				"node":1,
				"path":"rotation"
			}
		},
		{
			"sampler":2,
			"target":{
				"node":1,
				"path":"scale"
			}
		}]
	}]
}
