{
	"asset":{
		"version":"2.0",
		"generator":"Created using the official Cinema 4D glTF Exporter 1.000x290161"
	},
	"scenes":[{
		"nodes":[0]
	}],
	"accessors":[{
		"bufferView":0,
		"type":"SCALAR",
		"componentType":5123,
		"count":31488,
		"byteOffset":0,
		"min":[0],
		"max":[6633]
	},
	{
		"bufferView":1,
		"type":"VEC3",
		"componentType":5126,
		"count":6634,
		"byteOffset":0,
		"min":[-1.777590036392212,
		0.002237000036984682,
		-0.7288489937782288],
		"max":[1.777590036392212,
		5.465970039367676,
		0.7416890263557434]
	},
	{
		"bufferView":1,
		"type":"VEC3",
		"componentType":5126,
		"count":6634,
		"byteOffset":12,
		"min":[-1.0,
		-1.0,
		-1.0],
		"max":[1.0,
		1.0,
		1.0]
	},
	{
		"bufferView":1,
		"type":"VEC2",
		"componentType":5126,
		"count":6634,
		"byteOffset":24,
		"min":[0.009999999776482582,
		0.009999999776482582],
		"max":[0.9877439737319946,
		0.9900000095367432]
	}],
	"nodes":[{
		"name":"Mesh_Default",
		"mesh":0
	}],
	"meshes":[{
		"primitives":[{
			"attributes":{
				"POSITION":1,
				"NORMAL":2,
				"TEXCOORD_0":3
			},
			"material":0,
			"indices":0
		}]
	}],
	"bufferViews":[{
		"buffer":0,
		"byteOffset":0,
		"byteLength":62976,
		"target":34963
	},
	{
		"buffer":0,
		"byteOffset":62976,
		"byteLength":212288,
		"target":34962,
		"byteStride":32
	}],
	"materials":[{
		"pbrMetallicRoughness":{
			"baseColorFactor":[0.384,
			0.7514666666666661,
			0.8,
			1.0],
			"metallicFactor":0.0,
			"roughnessFactor":0.5
		},
		"doubleSided":true,
		"emissiveFactor":[0.0,
		0.0,
		0.0],
		"alphaMode":"OPAQUE",
		"name":"Head"
	}],
	"buffers":[{
		"uri":"data:application/octet-stream;base64,",
		"byteLength":275264
	}]
}