{
  "asset": {
    "version": "2.0",
    "generator": "THREE.GLTFExporter"
  },
  "scenes": [
    {
      "nodes": [
        1
      ],
      "name": "AuxScene"
    }
  ],
  "scene": 0,
  "nodes": [
    {
      "name": "Mesh_Default",
      "mesh": 0
    },
    {
      "children": [
        0
      ]
    }
  ],
  "bufferViews": [
    {
      "buffer": 0,
      "byteOffset": 0,
      "byteLength": 377856,
      "target": 34962,
      "byteStride": 12
    },
    {
      "buffer": 0,
      "byteOffset": 377856,
      "byteLength": 377856,
      "target": 34962,
      "byteStride": 12
    },
    {
      "buffer": 0,
      "byteOffset": 755712,
      "byteLength": 251904,
      "target": 34962,
      "byteStride": 8
    },
    {
      "buffer": 0,
      "byteOffset": 1007616,
      "byteLength": 4440,
      "target": 34963
    },
    {
      "buffer": 0,
      "byteOffset": 1012056,
      "byteLength": 13056,
      "target": 34963
    },
    {
      "buffer": 0,
      "byteOffset": 1025112,
      "byteLength": 5976,
      "target": 34963
    },
    {
      "buffer": 0,
      "byteOffset": 1031088,
      "byteLength": 3216,
      "target": 34963
    },
    {
      "buffer": 0,
      "byteOffset": 1034304,
      "byteLength": 2304,
      "target": 34963
    },
    {
      "buffer": 0,
      "byteOffset": 1036608,
      "byteLength": 33984,
      "target": 34963
    }
  ],
  "buffers": [
    {
      "byteLength": 1070592,
      "uri": "data:application/octet-stream;base64,"
    }
  ],
  "accessors": [
    {
      "bufferView": 0,
      "componentType": 5126,
      "count": 31488,
      "max": [
        1.777590036392212,
        5.465970039367676,
        0.7288489937782288
      ],
      "min": [
        -1.777590036392212,
        0.002237000036984682,
        -0.7416890263557434
      ],
      "type": "VEC3"
    },
    {
      "bufferView": 1,
      "componentType": 5126,
      "count": 31488,
      "max": [
        1,
        1,
        1
      ],
      "min": [
        -1,
        -1,
        -1
      ],
      "type": "VEC3"
    },
    {
      "bufferView": 2,
      "componentType": 5126,
      "count": 31488,
      "max": [
        0.9877439737319946,
        0.9900000095367432
      ],
      "min": [
        0.009999999776482582,
        0.009999990463256836
      ],
      "type": "VEC2"
    },
    {
      "bufferView": 3,
      "componentType": 5123,
      "count": 2220,
      "max": [
        2219
      ],
      "min": [
        0
      ],
      "type": "SCALAR"
    },
    {
      "bufferView": 4,
      "componentType": 5123,
      "count": 6528,
      "max": [
        8747
      ],
      "min": [
        2220
      ],
      "type": "SCALAR"
    },
    {
      "bufferView": 5,
      "componentType": 5123,
      "count": 2988,
      "max": [
        11735
      ],
      "min": [
        8748
      ],
      "type": "SCALAR"
    },
    {
      "bufferView": 6,
      "componentType": 5123,
      "count": 1608,
      "max": [
        13343
      ],
      "min": [
        11736
      ],
      "type": "SCALAR"
    },
    {
      "bufferView": 7,
      "componentType": 5123,
      "count": 1152,
      "max": [
        14495
      ],
      "min": [
        13344
      ],
      "type": "SCALAR"
    },
    {
      "bufferView": 8,
      "componentType": 5123,
      "count": 16992,
      "max": [
        31487
      ],
      "min": [
        14496
      ],
      "type": "SCALAR"
    }
  ],
  "materials": [
    {
      "pbrMetallicRoughness": {
        "baseColorFactor": [
          0.38400000333786,
          0.75146669149399,
          0.80000001192093,
          1
        ],
        "metallicFactor": 0.5,
        "roughnessFactor": 0.5
      },
      "name": "Head"
    },
    {
      "pbrMetallicRoughness": {
        "baseColorFactor": [
          0.80000001192093,
          0.63679999113083,
          0.391999989748,
          1
        ],
        "metallicFactor": 0.5,
        "roughnessFactor": 0.5
      },
      "name": "Waist"
    },
    {
      "pbrMetallicRoughness": {
        "baseColorFactor": [
          0.38400000333786,
          0.41173332929611,
          0.80000001192093,
          1
        ],
        "metallicFactor": 0.5,
        "roughnessFactor": 0.5
      },
      "name": "Default"
    },
    {
      "pbrMetallicRoughness": {
        "baseColorFactor": [
          0.297333329916,
          0.80000001192093,
          0.28000000119209,
          1
        ],
        "metallicFactor": 0.5,
        "roughnessFactor": 0.5
      },
      "name": "Arms"
    },
    {
      "pbrMetallicRoughness": {
        "baseColorFactor": [
          0.80000001192093,
          0.15999999642372,
          0.37333333492279,
          1
        ],
        "metallicFactor": 0.5,
        "roughnessFactor": 0.5
      },
      "name": "Chest"
    },
    {
      "pbrMetallicRoughness": {
        "baseColorFactor": [
          0.07000000029802,
          0.07000000029802,
          0.07000000029802,
          1
        ],
        "metallicFactor": 0.5,
        "roughnessFactor": 0.5
      },
      "name": "Legs"
    }
  ],
  "meshes": [
    {
      "primitives": [
        {
          "mode": 4,
          "attributes": {
            "POSITION": 0,
            "NORMAL": 1,
            "TEXCOORD_0": 2
          },
          "indices": 3,
          "material": 0
        },
        {
          "mode": 4,
          "attributes": {
            "POSITION": 0,
            "NORMAL": 1,
            "TEXCOORD_0": 2
          },
          "indices": 4,
          "material": 1
        },
        {
          "mode": 4,
          "attributes": {
            "POSITION": 0,
            "NORMAL": 1,
            "TEXCOORD_0": 2
          },
          "indices": 5,
          "material": 2
        },
        {
          "mode": 4,
          "attributes": {
            "POSITION": 0,
            "NORMAL": 1,
            "TEXCOORD_0": 2
          },
          "indices": 6,
          "material": 3
        },
        {
          "mode": 4,
          "attributes": {
            "POSITION": 0,
            "NORMAL": 1,
            "TEXCOORD_0": 2
          },
          "indices": 7,
          "material": 4
        },
        {
          "mode": 4,
          "attributes": {
            "POSITION": 0,
            "NORMAL": 1,
            "TEXCOORD_0": 2
          },
          "indices": 8,
          "material": 5
        }
      ]
    }
  ]
}